<?xml version="1.0" encoding="utf-8"?>
<!-- Generator: Adobe Illustrator 24.0.0, SVG Export Plug-In . SVG Version: 6.00 Build 0)  -->
<svg version="1.1" id="Capa_1" xmlns="http://www.w3.org/2000/svg" xmlns:xlink="http://www.w3.org/1999/xlink" x="0px" y="0px"
	 viewBox="0 0 100 100" style="enable-background:new 0 0 100 100;" xml:space="preserve">
<g>
	<path d="M92.21,90.27h-7.56v-2.28c0-0.95-0.77-1.72-1.72-1.72s-1.72,0.77-1.72,1.72v2.28H51.65v-2.28c0-0.95-0.77-1.72-1.72-1.72
		s-1.72,0.77-1.72,1.72v2.28H18.65v-2.28c0-0.95-0.77-1.72-1.72-1.72c-0.95,0-1.72,0.77-1.72,1.72v2.28H7.65
		c-0.95,0-1.72,0.77-1.72,1.72s0.77,1.72,1.72,1.72h84.56c0.95,0,1.72-0.77,1.72-1.72S93.16,90.27,92.21,90.27z"/>
	<path d="M14.53,82.71h17.21v2.28c0,0.95,0.77,1.72,1.72,1.72c0.95,0,1.72-0.77,1.72-1.72v-2.28h29.56v2.28
		c0,0.95,0.77,1.72,1.72,1.72c0.95,0,1.72-0.77,1.72-1.72v-2.28h24.04c0.95,0,1.72-0.77,1.72-1.72s-0.77-1.72-1.72-1.72H14.53
		c-0.95,0-1.72,0.77-1.72,1.72S13.58,82.71,14.53,82.71z"/>
	<path d="M7.65,82.71c0.45,0,0.9-0.18,1.22-0.5s0.5-0.76,0.5-1.22s-0.18-0.9-0.5-1.22c-0.32-0.32-0.76-0.5-1.22-0.5
		c-0.45,0-0.9,0.18-1.22,0.5s-0.5,0.76-0.5,1.22s0.18,0.9,0.5,1.22S7.2,82.71,7.65,82.71z"/>
	<path d="M49.93,75.14c19.14,0,34.72-15.57,34.72-34.72c0-9.27-3.61-17.99-10.16-24.54c-0.67-0.67-1.76-0.67-2.43,0
		c-0.67,0.67-0.67,1.76,0,2.43c1.54,1.54,2.9,3.22,4.07,5l-15.05,8.69c-0.42-3.44,0.52-7.02,2.81-9.85c0.6-0.74,0.49-1.82-0.25-2.42
		c-0.74-0.6-1.82-0.49-2.42,0.25c-2.38,2.93-3.69,6.63-3.69,10.41c0,1.16,0.13,2.32,0.37,3.44l-7.14,4.12
		c-3.36-4.74-3.19-11.25,0.51-15.81c0.6-0.74,0.49-1.82-0.25-2.42c-0.74-0.6-1.82-0.49-2.42,0.25c-2.38,2.93-3.69,6.63-3.69,10.41
		c0,3.31,1.01,6.56,2.86,9.29l-6.43,3.71c-0.62-1.71-1.53-3.33-2.69-4.76c-3.88-4.78-3.88-11.71,0-16.49
		c0.6-0.74,0.49-1.82-0.25-2.42c-0.74-0.6-1.82-0.49-2.42,0.25c-2.38,2.93-3.69,6.63-3.69,10.41c0,3.78,1.31,7.48,3.69,10.41
		c1.07,1.31,1.84,2.79,2.32,4.35l-16.27,9.39c-2.16-4.25-3.38-9.05-3.38-14.13c0-17.25,14.03-31.28,31.28-31.28
		c3.86,0,7.63,0.69,11.2,2.06c0.89,0.34,1.88-0.1,2.22-0.99S63.24,8.34,62.36,8c-3.96-1.52-8.14-2.29-12.43-2.29
		c-19.14,0-34.72,15.57-34.72,34.72S30.79,75.14,49.93,75.14z M38.88,48.79c0.06,3.02-0.91,6.05-2.9,8.51
		c-0.6,0.74-0.49,1.82,0.25,2.42c0.32,0.26,0.7,0.38,1.08,0.38c0.5,0,1-0.22,1.34-0.64c2.38-2.93,3.69-6.63,3.69-10.41
		c0-0.73-0.05-1.46-0.15-2.18l7.57-4.37c2.66,4.62,2.28,10.56-1.16,14.79c-0.6,0.74-0.49,1.82,0.25,2.42
		c0.32,0.26,0.7,0.38,1.08,0.38c0.5,0,1-0.22,1.34-0.64c2.38-2.93,3.69-6.63,3.69-10.41c0-2.91-0.78-5.77-2.22-8.27l6.25-3.61
		c0.58,1.3,1.33,2.52,2.23,3.63c3.88,4.78,3.88,11.71,0,16.49c-0.6,0.74-0.49,1.82,0.25,2.42c0.32,0.26,0.7,0.38,1.08,0.38
		c0.5,0,1-0.22,1.34-0.64c2.38-2.93,3.69-6.63,3.69-10.41c0-3.78-1.31-7.48-3.69-10.41c-0.8-0.99-1.43-2.06-1.9-3.2l15.87-9.16
		c2.2,4.33,3.36,9.14,3.36,14.14c0,17.25-14.03,31.28-31.28,31.28c-10.94,0-20.59-5.65-26.18-14.18L38.88,48.79z"/>
	<path d="M66.92,14.15c0.03,0.02,0.06,0.04,0.08,0.06c0.29,0.18,0.61,0.27,0.93,0.27c0.56,0,1.1-0.27,1.43-0.77
		c0.53-0.79,0.31-1.86-0.48-2.38c0,0,0,0-0.01,0c-0.76-0.51-1.8-0.33-2.34,0.42C65.99,12.52,66.16,13.59,66.92,14.15z"/>
</g>
</svg>
