<?xml version="1.0" encoding="utf-8"?>
<!-- Generator: Adobe Illustrator 24.0.0, SVG Export Plug-In . SVG Version: 6.00 Build 0)  -->
<svg version="1.1" id="Capa_1" xmlns="http://www.w3.org/2000/svg" xmlns:xlink="http://www.w3.org/1999/xlink" x="0px" y="0px"
	 viewBox="0 0 100 100" style="enable-background:new 0 0 100 100;" xml:space="preserve">
<g>
	<path d="M98.18,0.05c-1.5-0.72-3.31-0.14-4.06,1.31l-27.6,53.53l-5.41-2.62c-4.48-2.17-9.93-0.4-12.18,3.92l-1.35,2.62l32.45,15.75
		l1.35-2.62c2.24-4.32,0.45-9.61-4.05-11.79l-5.41-2.62l27.6-53.53C100.27,2.54,99.67,0.78,98.18,0.05L98.18,0.05z"/>
	<ellipse cx="33.11" cy="96.81" rx="3.02" ry="2.93"/>
	<ellipse cx="2.87" cy="79.24" rx="3.02" ry="2.93"/>
	<ellipse cx="14.97" cy="85.1" rx="3.02" ry="2.93"/>
	<path d="M21.01,93.88H8.92c-1.67,0-3.02-1.31-3.02-2.93c0-1.62-1.35-2.93-3.02-2.93s-3.02,1.31-3.02,2.93
		c0,4.85,4.07,8.79,9.07,8.79h12.1c1.67,0,3.02-1.31,3.02-2.93C24.04,95.19,22.69,93.88,21.01,93.88z"/>
	<path d="M20.13,75.54c-1.32,0.16-2.38,1.14-2.6,2.41c-0.22,1.27,0.43,2.54,1.62,3.12l14.45,7.01c2.61,1.26,5.49,1.77,8.3,1.48
		c-0.33,1.3,0.3,2.69,1.58,3.32l13.52,6.56c1.14,0.54,2.45,0.35,3.36-0.43c0.47-0.41,10.77-9.39,16.79-19.28L44.59,63.92
		C37.29,73.31,20.32,75.52,20.13,75.54L20.13,75.54z"/>
</g>
</svg>
