<?xml version="1.0" encoding="utf-8"?>
<!-- Generator: Adobe Illustrator 24.0.0, SVG Export Plug-In . SVG Version: 6.00 Build 0)  -->
<svg version="1.1" id="Capa_1" xmlns="http://www.w3.org/2000/svg" xmlns:xlink="http://www.w3.org/1999/xlink" x="0px" y="0px"
	 viewBox="0 0 100 100" style="enable-background:new 0 0 100 100;" xml:space="preserve">
<g>
	<g>
		<g>
			<path d="M80.01,21.58c-0.43-0.6-1.18-0.84-1.93-0.48l-2.79,1.2l-8.6-21.22C66.36,0.36,65.83,0,65.18,0H37.25
				c-0.54,0-0.97,0.24-1.29,0.72l-15.79,21.1c-0.32,0.36-0.43,0.96-0.32,1.44c0.11,0.48,0.32,0.96,0.64,1.32l15.79,13.07
				c0.75,0.6,1.83,0.48,2.36-0.36L48.96,21.7l4.94,9.83l-3.12,1.8c-0.64,0.36-0.97,1.08-0.86,1.8c0.11,0.72,0.54,1.44,1.29,1.56
				l17.62,4.8c0.11,0,0.21,0,0.43,0c0.54,0,1.07-0.36,1.4-0.84l9.45-16.91C80.55,23.02,80.44,22.18,80.01,21.58z M36.93,33.45
				l-13-10.79L38.11,3.72h2.26l6.98,14.51L36.93,33.45z M68.3,37.65l-11.93-3.24l0.64-0.36c0.43-0.24,0.75-0.6,0.86-1.08
				c0.11-0.48,0.11-0.96-0.11-1.44l-7.09-14.15L44.02,3.6H64l8.81,21.82c0.32,0.72,1.07,1.2,1.72,1.08L68.3,37.65z"/>
		</g>
	</g>
	<g>
		<g>
			<path d="M42.83,70.02l-17.41-0.84l4.51-10.07l3.01,1.92c0.64,0.36,1.4,0.36,1.93-0.24c0.54-0.48,0.75-1.32,0.43-2.04l-6.34-18.94
				c-0.21-0.72-0.86-1.2-1.61-1.2L9.42,39.33c-0.75,0-1.29,0.6-1.5,1.32c-0.21,0.72,0.11,1.56,0.64,2.04l2.47,1.92L0.18,64.51
				c-0.32,0.6-0.32,1.44,0,2.04l12.03,19.78l4.62,7.79c0.32,0.48,0.86,0.84,1.4,0.84h24.5c0.97,0,1.72-0.84,1.72-1.92v-21.1
				C44.45,70.98,43.69,70.14,42.83,70.02z M14.79,83.93L3.62,65.47L14.9,45.08c0.43-0.72,0.32-1.56-0.21-2.16l11.71-0.6l4.3,12.95
				l-0.64-0.36c-0.43-0.24-0.86-0.36-1.29-0.12c-0.43,0.12-0.75,0.48-0.97,0.96l-6.45,14.39L14.79,83.93z M41.01,91.25H19.09
				l-2.15-3.72l6.88-14.63l17.19,0.84V91.25z"/>
		</g>
	</g>
	<g>
		<g>
			<path d="M99.78,63.79l-10.74-24.7c-0.21-0.48-0.54-0.84-0.97-0.96c-0.43-0.12-0.86-0.12-1.29,0.24L69.59,49.04
				c-0.75,0.48-1.07,1.68-0.64,2.52l8.38,16.91l-10.1,0.96l-0.11-3.84c0-0.84-0.54-1.44-1.18-1.68s-1.4,0-1.83,0.6L52.93,80.46
				c-0.43,0.6-0.43,1.56-0.11,2.16l9.99,16.55c0.32,0.48,0.86,0.84,1.4,0.84c0.11,0,0.32,0,0.43-0.12c0.64-0.24,1.18-0.96,1.18-1.68
				l0.11-3.36h20.84c0.64,0,1.29-0.48,1.5-1.08l11.5-28.42C99.99,64.87,99.99,64.27,99.78,63.79z M85.92,91.25H64.54
				c-0.75,0-1.4,0.6-1.61,1.32l-6.55-10.91L64,70.74v0.84c0,0.48,0.21,0.96,0.54,1.32c0.32,0.36,0.75,0.48,1.29,0.48l14.4-1.44
				l13.97-1.08L85.92,91.25z M95.59,66.91l-14.72,1.2L72.6,51.32l14.18-8.87l9.78,22.18L95.59,66.91z"/>
		</g>
	</g>
</g>
</svg>
