<?xml version="1.0" encoding="utf-8"?>
<!-- Generator: Adobe Illustrator 24.0.0, SVG Export Plug-In . SVG Version: 6.00 Build 0)  -->
<svg version="1.1" id="Capa_1" xmlns="http://www.w3.org/2000/svg" xmlns:xlink="http://www.w3.org/1999/xlink" x="0px" y="0px"
	 viewBox="0 0 100 100" style="enable-background:new 0 0 100 100;" xml:space="preserve">
<style type="text/css">
	.st0{fill:#231F20;}
</style>
<g>
	<g>
		<g>
			<path class="st0" d="M50.03,21.26c-16.98,0-30.85,11.56-30.85,25.72c0,7.4,3.88,14.52,10.43,19.33
				c4.88,4.07,4.44,12.77,4.33,12.86c0,0.46,0.11,0.83,0.55,1.2c0.33,0.28,0.89,0.46,1.33,0.46h28.3c0.55,0,1-0.19,1.33-0.46
				c0.33-0.28,0.55-0.74,0.55-1.2c0-0.09-0.55-8.79,4.33-12.86c0.11-0.09,0.22-0.19,0.33-0.28c6.44-4.9,10.21-11.84,10.21-19.06
				C80.88,32.82,67.01,21.26,50.03,21.26z M67.79,63.91c-0.11,0.09-0.33,0.28-0.33,0.37c-4.33,3.89-5.1,10.27-5.22,13.32H37.71
				c-0.11-3.05-0.89-9.71-5.55-13.69c-5.88-4.26-9.32-10.45-9.32-17.02c0-12.49,12.1-22.57,27.08-22.57S77,34.4,77,46.88
				C77,53.45,73.67,59.65,67.79,63.91z"/>
			<path class="st0" d="M49.92,27.83c-1,0-1.89,0.74-1.89,1.57c0,0.83,0.89,1.57,1.89,1.57c11.21,0,20.2,7.59,20.2,16.84
				c0,0.83,0.89,1.57,1.89,1.57s1.89-0.74,1.89-1.57C74,36.8,63.24,27.83,49.92,27.83z"/>
			<path class="st0" d="M62.24,82.59H37.6c-2.55,0-4.66,1.76-4.66,3.89s2.11,3.89,4.66,3.89h24.52c2.66-0.09,4.77-1.76,4.77-3.89
				S64.79,82.59,62.24,82.59z M62.24,87.13H37.6c-0.44,0-0.89-0.28-0.89-0.74s0.33-0.74,0.89-0.74h24.52c0.44,0,0.89,0.28,0.89,0.74
				S62.68,87.13,62.24,87.13z"/>
			<path class="st0" d="M58.58,91.94H41.26c-2.55,0-4.66,1.76-4.66,3.89s2.11,3.89,4.66,3.89h17.31c2.55,0,4.66-1.76,4.66-3.89
				C63.24,93.6,61.13,91.94,58.58,91.94z M58.58,96.47H41.26c-0.44,0-0.89-0.28-0.89-0.74s0.33-0.74,0.89-0.74h17.31
				c0.44,0,0.89,0.28,0.89,0.74S59.02,96.47,58.58,96.47z"/>
			<path class="st0" d="M49.92,13.58c1.11,0,1.89-0.74,1.89-1.57V1.28c0-0.83-0.89-1.57-1.89-1.57c-1,0-1.89,0.74-1.89,1.57v10.73
				C48.03,12.84,48.92,13.58,49.92,13.58z"/>
			<path class="st0" d="M81.32,7.66c-0.89-0.56-2-0.28-2.55,0.37l-7.1,8.88c-0.67,0.74-0.44,1.76,0.44,2.22
				c0.33,0.19,0.67,0.28,1,0.28c0.67,0,1.22-0.28,1.55-0.74l7.1-8.88C82.43,9.14,82.21,8.12,81.32,7.66z"/>
			<path class="st0" d="M27.39,19.04c0.33,0,0.67-0.09,1-0.28c0.89-0.46,1.11-1.48,0.55-2.22l-6.88-8.97
				c-0.55-0.74-1.78-0.93-2.66-0.46c-0.89,0.46-1.11,1.48-0.55,2.22l6.88,8.97C26.17,18.86,26.73,19.04,27.39,19.04z"/>
			<path class="st0" d="M13.97,28.85L2.76,23.76c-0.89-0.37-2.11-0.09-2.55,0.65c-0.55,0.74-0.22,1.76,0.78,2.13l11.21,5.09
				c0.33,0.09,0.55,0.19,0.89,0.19c0.67,0,1.33-0.28,1.66-0.83C15.19,30.23,14.85,29.22,13.97,28.85z"/>
			<path class="st0" d="M99.74,24.41c-0.44-0.74-1.66-1.02-2.55-0.65l-11.32,5.09c-0.89,0.37-1.22,1.39-0.78,2.13
				c0.33,0.56,1,0.83,1.66,0.83c0.33,0,0.67-0.09,0.89-0.19l11.32-5.09C99.85,26.16,100.19,25.15,99.74,24.41z"/>
		</g>
	</g>
</g>
</svg>
