<?xml version="1.0" encoding="utf-8"?>
<!-- Generator: Adobe Illustrator 24.0.0, SVG Export Plug-In . SVG Version: 6.00 Build 0)  -->
<svg version="1.1" id="Capa_1" xmlns="http://www.w3.org/2000/svg" xmlns:xlink="http://www.w3.org/1999/xlink" x="0px" y="0px"
	 viewBox="0 0 100 100" style="enable-background:new 0 0 100 100;" xml:space="preserve">
<g>
	<g>
		<path d="M65.61,24.57c-6.49,1.44-12.88-2.84-14.27-9.55C49.95,8.3,54.08,1.7,60.57,0.26c6.49-1.44,12.88,2.84,14.28,9.55
			C76.24,16.52,72.1,23.13,65.61,24.57z"/>
		<path d="M1.28,78.52l5.41-2.22l8.9-16.21l11.41-8.66l5.15,3.09l5.3-2c0.7-1.75,2.36-2.98,4.31-2.98c10.83,0,17.13-8,17.66-15.64
			c0.36-3.86,3.29-7.04,6.36-8.58c0,0,1.16-0.66,2.48-0.92c1.26-0.25,2.73-0.26,2.73-0.26l0.04,0c4.16,0.12,9.06,2.52,10.1,7.53
			l5.56,26.84c0.33,1.6,0.19,3.13-0.27,4.53c-0.07,0.27-5.83,15-5.83,15h13.06c3.52,0,6.37,2.95,6.37,6.58
			c0,3.64-2.85,6.58-6.37,6.58H71.12c-2.12,0-4.1-1.09-5.28-2.91c-1.18-1.82-1.41-4.12-0.62-6.15l3.58-9.11l-7.74,2.29l2.92,16.57
			c0.63,3.58-1.66,7-5.12,7.66c-0.38,0.07-0.77,0.11-1.15,0.11c-3.02,0-5.69-2.23-6.26-5.4L47.5,71.81
			c-0.59-3.33,1.36-6.58,4.51-7.51l12.54-3.71l-2.04-9.84c-4.6,5.55-11.58,8.45-20.76,8.45c-1.13,0-2.16-0.43-2.97-1.13l-4.43,1.67
			L22.21,83.77l0.52,12.94c0.06,1.57-1.12,2.9-2.64,2.96c-0.04,0-0.08,0-0.12,0c-1.47,0-2.69-1.2-2.75-2.73l-0.33-8.27l-1.32,8.89
			c-0.21,1.41-1.38,2.41-2.72,2.41c-0.14,0-0.28-0.01-0.42-0.03c-1.5-0.24-2.53-1.69-2.3-3.24l2.15-14.51l-3.69-2.17l-5.83,2.39
			c-0.24,0.1-0.5,0.15-0.75,0.15c-0.81,0-1.57-0.5-1.89-1.32C-0.27,80.16,0.24,78.94,1.28,78.52z"/>
		<path d="M25.88,45.39c-0.36,0.35-0.72,0.7-1.08,1.05c-0.26,0.25,1.22,3.81,1.22,3.81l-11.11,8.31c-0.75-1.21-1.5-2.43-2.25-3.65
			c-1.65-2.67-3.22-5.39-5.16-7.84c-0.53-0.67-1.16-1.27-1.82-1.81c-3.04-2.46-1.15-4.15-0.66-4.44c1.22-0.74,2.56-0.6,3.82,0.08
			c0.7,0.38,1.39,0.78,2.09,1.18c0.2,0.12,0.36,0.11,0.55-0.05c0.32-0.25,0.68-0.48,1.03-0.7c2-1.26,3.95-1.03,6.1-2
			c0.73-0.32,5.25-5.69,7.65-4.38c2.62,1.43,2.81,4.4,1.97,6.79C27.73,43.17,26.94,44.37,25.88,45.39z"/>
	</g>
</g>
</svg>
