<?xml version="1.0" encoding="utf-8"?>
<!-- Generator: Adobe Illustrator 24.0.0, SVG Export Plug-In . SVG Version: 6.00 Build 0)  -->
<svg version="1.1" id="Capa_1" xmlns="http://www.w3.org/2000/svg" xmlns:xlink="http://www.w3.org/1999/xlink" x="0px" y="0px"
	 viewBox="0 0 100 100" style="enable-background:new 0 0 100 100;" xml:space="preserve">
<g>
	<path d="M91.25,16.11C86.74,9.08,79.98,0.71,73.37,0.71c-2.01,0-4.03,1.69-6.76,4.85c-3.86-2.12-12.37-4.85-16.68-4.85
		c-4.32,0-12.82,2.74-16.68,4.85c-2.73-3.16-4.75-4.85-6.76-4.85c-6.61,0-13.37,8.38-17.88,15.41c-3.36,5.24-8.68,15.08-8.68,19.21
		c0,7.75,0.2,11.23,5.31,19.62c3.9,6.4,4.31,15.72,6.93,20.78c1.71,3.31,4.29,4.63,7.27,3.72c2.96-0.91,4.89-3.99,5.74-9.16
		c3.3,5.59,2.74,8.88,2.96,10.78c0.22,7.25,10.29,19.64,21.79,19.64c11.48,0,21.57-12.38,21.79-19.64c0.22-1.89-0.36-5.18,2.96-10.8
		c0.87,5.3,3.13,9.45,7.54,9.45c8.26,0,6.88-15.73,12.4-24.78c5.11-8.38,5.31-11.86,5.31-19.62C99.93,31.19,94.61,21.35,91.25,16.11
		L91.25,16.11z M49.93,71.86c-1.63,0-3.55-3.02-4.35-4.93c2.31-1.12,6.39-1.12,8.7,0C53.49,68.84,51.56,71.86,49.93,71.86z
		 M49.93,87.24c2.03,1.89,4.68,3.03,7.41,3.45c-4.93,3.1-9.88,3.11-14.82,0C45.25,90.26,47.9,89.12,49.93,87.24L49.93,87.24z
		 M89.62,50.32c-4.92,8.07-5.68,19.77-7.46,21.7c-1.12-0.12-1.53-4.32-1.63-5.69c-0.51-7.09,0.65-17.22,0.65-23.32
		c0-10.4-6.31-26.06-6.58-26.72c-0.77-1.9-2.65-2.67-4.19-1.72c-1.54,0.95-2.17,3.26-1.4,5.16c1.65,4.05,5.92,16.14,5.92,23.28
		c0,4.01-0.6,10.43-0.75,16.59c-1.69,1.79-8.63,9.77-8.63,19.94c0,4.77-10.87,4.78-12.86,0.13c-0.08-0.2-0.2-0.42-0.32-0.61
		c4.7-1.84,8.5-9.12,8.5-12.98c0-10.32-21.88-10.32-21.88,0c0,3.86,3.79,11.13,8.5,12.98c-0.12,0.19-0.24,0.41-0.32,0.61
		c-2,4.67-12.86,4.63-12.86-0.13c0-10.17-6.94-18.15-8.63-19.94c-0.14-5.94-0.75-12.68-0.75-16.59c0-7.13,4.27-19.22,5.92-23.28
		c0.77-1.9,0.15-4.21-1.4-5.16c-1.54-0.95-3.42-0.18-4.19,1.72c-0.27,0.66-6.58,16.32-6.58,26.72c0,6.1,1.16,16.23,0.65,23.32
		c-0.1,1.37-0.51,5.57-1.63,5.69c-1.81-1.95-2.52-13.6-7.46-21.7c-4.02-6.6-4.06-8.39-4.06-14.79C6.54,33.76,9.51,27,13.96,20.2
		c4.7-7.16,9.24-11.53,12.25-11.79c0.92,0.57,2.84,2.8,4.32,4.63c1.18,1.46,3.09,1.51,4.33,0.11c1.55-1.3,10.89-4.75,15.07-4.75
		S63.45,11.85,65,13.15c1.23,1.39,3.14,1.35,4.33-0.11c2.58-3.17,3.77-4.29,4.32-4.63c3.01,0.26,7.56,4.63,12.25,11.79
		c4.46,6.8,7.42,13.56,7.78,15.33C93.68,41.93,93.64,43.73,89.62,50.32L89.62,50.32z"/>
	<ellipse cx="35.09" cy="40.13" rx="3.91" ry="4.81"/>
	<ellipse cx="64.78" cy="40.13" rx="3.91" ry="4.81"/>
</g>
</svg>
