<?xml version="1.0" encoding="utf-8"?>
<!-- Generator: Adobe Illustrator 24.0.0, SVG Export Plug-In . SVG Version: 6.00 Build 0)  -->
<svg version="1.1" id="Capa_1" xmlns="http://www.w3.org/2000/svg" xmlns:xlink="http://www.w3.org/1999/xlink" x="0px" y="0px"
	 viewBox="0 0 100 100" style="enable-background:new 0 0 100 100;" xml:space="preserve">
<style type="text/css">
	.st0{fill:#FFFFFF;}
</style>
<g>
	<g>
		<path class="st0" d="M38.5,34.3c6.8-1.4,10.9-8.9,9.3-16.8C46.1,9.6,39.3,4.4,32.6,5.8c-6.8,1.4-10.9,8.9-9.3,16.8
			C24.9,30.5,31.7,35.7,38.5,34.3z"/>
		<path class="st0" d="M18.7,54.4c6.3-2.8,8.8-11,5.6-18.4c-3.2-7.4-11-11.1-17.3-8.3c-6.3,2.8-8.8,11-5.6,18.4
			C4.7,53.5,12.4,57.2,18.7,54.4z"/>
		<path class="st0" d="M61.5,34.3c6.8,1.4,13.6-3.9,15.2-11.8c1.6-7.9-2.5-15.4-9.3-16.8c-6.8-1.4-13.6,3.9-15.2,11.8
			C50.6,25.4,54.8,32.9,61.5,34.3z"/>
		<path class="st0" d="M93,27.7c-6.3-2.8-14.1,0.9-17.3,8.3c-3.2,7.4-0.7,15.6,5.6,18.4c6.3,2.8,14.1-0.9,17.3-8.3
			C101.8,38.7,99.3,30.5,93,27.7z"/>
	</g>
	<path class="st0" d="M76.2,62.6c-3.3-2-7.7-5.6-9.9-11.3C62.6,41.8,55.5,40.1,50,40.1c-5.5,0-12.6,1.7-16.3,11.2
		c-2.2,5.6-6.6,9.3-9.9,11.3c-7,2-12.2,8.4-12.2,16.1c0,9.3,7.5,16.9,16.9,16.9c3.4,0,7.3-1,10.9-2.1c0.7-1.1,5.8-9.8,2.6-12.1
		c-3.5-2.5-2.4-7.7-1.7-9.8c0.7-2.1,0-3.5,0-3.5c-2.2,6.8-5,6-5,6s0-5.1-1-7c-1.1-1.9-2.5-3.8-1.6-6c1-2.3,5.2-1.1,6.6-2.1
		c1.4-0.9,2.8-0.2,2.8-0.2C43.7,57.3,50,58,50,58s6.3-0.6,7.9,0.8c0,0,1.5-0.7,2.8,0.2c1.4,0.9,5.6-0.2,6.6,2.1c1,2.3-0.5,4.1-1.6,6
		c-1.1,1.9-1,7-1,7s-2.8,0.7-5-6c0,0-0.6,1.4,0,3.5c0.7,2.1,1.8,7.3-1.7,9.8c-3.3,2.3,1.9,11,2.6,12.1c3.6,1.1,7.5,2.1,10.9,2.1
		c9.3,0,16.9-7.5,16.9-16.9C88.5,71,83.3,64.6,76.2,62.6z"/>
</g>
</svg>
